<mxfile host="Electron" agent="Mozilla/5.0 (Macintosh; Intel Mac OS X 10_15_7) AppleWebKit/537.36 (KHTML, like Gecko) draw.io/24.7.17 Chrome/128.0.6613.36 Electron/32.0.1 Safari/537.36" version="24.7.17">
  <diagram name="Page-1" id="6jsbKgnkrJpTR4G2jro-">
    <mxGraphModel dx="954" dy="727" grid="1" gridSize="10" guides="1" tooltips="1" connect="1" arrows="1" fold="1" page="1" pageScale="1" pageWidth="827" pageHeight="1169" math="0" shadow="0">
      <root>
        <mxCell id="0" />
        <mxCell id="1" parent="0" />
        <mxCell id="Aejfl0fqgXJ9-_Io9ViW-1" value="Database" style="swimlane;fontStyle=1;align=center;verticalAlign=top;childLayout=stackLayout;horizontal=1;startSize=26;horizontalStack=0;resizeParent=1;resizeParentMax=0;resizeLast=0;collapsible=1;marginBottom=0;whiteSpace=wrap;html=1;" vertex="1" parent="1">
          <mxGeometry x="334" y="280" width="160" height="86" as="geometry" />
        </mxCell>
        <mxCell id="Aejfl0fqgXJ9-_Io9ViW-3" value="" style="line;strokeWidth=1;fillColor=none;align=left;verticalAlign=middle;spacingTop=-1;spacingLeft=3;spacingRight=3;rotatable=0;labelPosition=right;points=[];portConstraint=eastwest;strokeColor=inherit;" vertex="1" parent="Aejfl0fqgXJ9-_Io9ViW-1">
          <mxGeometry y="26" width="160" height="8" as="geometry" />
        </mxCell>
        <mxCell id="Aejfl0fqgXJ9-_Io9ViW-4" value="createTable()" style="text;strokeColor=none;fillColor=none;align=left;verticalAlign=top;spacingLeft=4;spacingRight=4;overflow=hidden;rotatable=0;points=[[0,0.5],[1,0.5]];portConstraint=eastwest;whiteSpace=wrap;html=1;" vertex="1" parent="Aejfl0fqgXJ9-_Io9ViW-1">
          <mxGeometry y="34" width="160" height="26" as="geometry" />
        </mxCell>
        <mxCell id="Aejfl0fqgXJ9-_Io9ViW-13" value="deleteTable()" style="text;strokeColor=none;fillColor=none;align=left;verticalAlign=top;spacingLeft=4;spacingRight=4;overflow=hidden;rotatable=0;points=[[0,0.5],[1,0.5]];portConstraint=eastwest;whiteSpace=wrap;html=1;" vertex="1" parent="Aejfl0fqgXJ9-_Io9ViW-1">
          <mxGeometry y="60" width="160" height="26" as="geometry" />
        </mxCell>
        <mxCell id="Aejfl0fqgXJ9-_Io9ViW-7" value="Service" style="swimlane;fontStyle=1;align=center;verticalAlign=top;childLayout=stackLayout;horizontal=1;startSize=26;horizontalStack=0;resizeParent=1;resizeParentMax=0;resizeLast=0;collapsible=1;marginBottom=0;whiteSpace=wrap;html=1;" vertex="1" parent="1">
          <mxGeometry x="334" y="150" width="160" height="86" as="geometry" />
        </mxCell>
        <mxCell id="Aejfl0fqgXJ9-_Io9ViW-9" value="" style="line;strokeWidth=1;fillColor=none;align=left;verticalAlign=middle;spacingTop=-1;spacingLeft=3;spacingRight=3;rotatable=0;labelPosition=right;points=[];portConstraint=eastwest;strokeColor=inherit;" vertex="1" parent="Aejfl0fqgXJ9-_Io9ViW-7">
          <mxGeometry y="26" width="160" height="8" as="geometry" />
        </mxCell>
        <mxCell id="Aejfl0fqgXJ9-_Io9ViW-10" value="createDatabase()" style="text;strokeColor=none;fillColor=none;align=left;verticalAlign=top;spacingLeft=4;spacingRight=4;overflow=hidden;rotatable=0;points=[[0,0.5],[1,0.5]];portConstraint=eastwest;whiteSpace=wrap;html=1;" vertex="1" parent="Aejfl0fqgXJ9-_Io9ViW-7">
          <mxGeometry y="34" width="160" height="26" as="geometry" />
        </mxCell>
        <mxCell id="Aejfl0fqgXJ9-_Io9ViW-12" value="deleteDatabase()" style="text;strokeColor=none;fillColor=none;align=left;verticalAlign=top;spacingLeft=4;spacingRight=4;overflow=hidden;rotatable=0;points=[[0,0.5],[1,0.5]];portConstraint=eastwest;whiteSpace=wrap;html=1;" vertex="1" parent="Aejfl0fqgXJ9-_Io9ViW-7">
          <mxGeometry y="60" width="160" height="26" as="geometry" />
        </mxCell>
        <mxCell id="Aejfl0fqgXJ9-_Io9ViW-19" value="Table" style="swimlane;fontStyle=1;align=center;verticalAlign=top;childLayout=stackLayout;horizontal=1;startSize=26;horizontalStack=0;resizeParent=1;resizeParentMax=0;resizeLast=0;collapsible=1;marginBottom=0;whiteSpace=wrap;html=1;" vertex="1" parent="1">
          <mxGeometry x="334" y="400" width="160" height="86" as="geometry" />
        </mxCell>
        <mxCell id="Aejfl0fqgXJ9-_Io9ViW-20" value="" style="line;strokeWidth=1;fillColor=none;align=left;verticalAlign=middle;spacingTop=-1;spacingLeft=3;spacingRight=3;rotatable=0;labelPosition=right;points=[];portConstraint=eastwest;strokeColor=inherit;" vertex="1" parent="Aejfl0fqgXJ9-_Io9ViW-19">
          <mxGeometry y="26" width="160" height="8" as="geometry" />
        </mxCell>
        <mxCell id="Aejfl0fqgXJ9-_Io9ViW-21" value="createTable()" style="text;strokeColor=none;fillColor=none;align=left;verticalAlign=top;spacingLeft=4;spacingRight=4;overflow=hidden;rotatable=0;points=[[0,0.5],[1,0.5]];portConstraint=eastwest;whiteSpace=wrap;html=1;" vertex="1" parent="Aejfl0fqgXJ9-_Io9ViW-19">
          <mxGeometry y="34" width="160" height="26" as="geometry" />
        </mxCell>
        <mxCell id="Aejfl0fqgXJ9-_Io9ViW-22" value="deleteTable()" style="text;strokeColor=none;fillColor=none;align=left;verticalAlign=top;spacingLeft=4;spacingRight=4;overflow=hidden;rotatable=0;points=[[0,0.5],[1,0.5]];portConstraint=eastwest;whiteSpace=wrap;html=1;" vertex="1" parent="Aejfl0fqgXJ9-_Io9ViW-19">
          <mxGeometry y="60" width="160" height="26" as="geometry" />
        </mxCell>
        <mxCell id="Aejfl0fqgXJ9-_Io9ViW-23" value="TableSchema" style="swimlane;fontStyle=1;align=center;verticalAlign=top;childLayout=stackLayout;horizontal=1;startSize=26;horizontalStack=0;resizeParent=1;resizeParentMax=0;resizeLast=0;collapsible=1;marginBottom=0;whiteSpace=wrap;html=1;" vertex="1" parent="1">
          <mxGeometry x="550" y="400" width="160" height="86" as="geometry" />
        </mxCell>
        <mxCell id="Aejfl0fqgXJ9-_Io9ViW-24" value="" style="line;strokeWidth=1;fillColor=none;align=left;verticalAlign=middle;spacingTop=-1;spacingLeft=3;spacingRight=3;rotatable=0;labelPosition=right;points=[];portConstraint=eastwest;strokeColor=inherit;" vertex="1" parent="Aejfl0fqgXJ9-_Io9ViW-23">
          <mxGeometry y="26" width="160" height="8" as="geometry" />
        </mxCell>
        <mxCell id="Aejfl0fqgXJ9-_Io9ViW-25" value="createTable()" style="text;strokeColor=none;fillColor=none;align=left;verticalAlign=top;spacingLeft=4;spacingRight=4;overflow=hidden;rotatable=0;points=[[0,0.5],[1,0.5]];portConstraint=eastwest;whiteSpace=wrap;html=1;" vertex="1" parent="Aejfl0fqgXJ9-_Io9ViW-23">
          <mxGeometry y="34" width="160" height="26" as="geometry" />
        </mxCell>
        <mxCell id="Aejfl0fqgXJ9-_Io9ViW-26" value="deleteTable()" style="text;strokeColor=none;fillColor=none;align=left;verticalAlign=top;spacingLeft=4;spacingRight=4;overflow=hidden;rotatable=0;points=[[0,0.5],[1,0.5]];portConstraint=eastwest;whiteSpace=wrap;html=1;" vertex="1" parent="Aejfl0fqgXJ9-_Io9ViW-23">
          <mxGeometry y="60" width="160" height="26" as="geometry" />
        </mxCell>
        <mxCell id="Aejfl0fqgXJ9-_Io9ViW-27" value="Row" style="swimlane;fontStyle=1;align=center;verticalAlign=top;childLayout=stackLayout;horizontal=1;startSize=26;horizontalStack=0;resizeParent=1;resizeParentMax=0;resizeLast=0;collapsible=1;marginBottom=0;whiteSpace=wrap;html=1;" vertex="1" parent="1">
          <mxGeometry x="334" y="520" width="160" height="86" as="geometry" />
        </mxCell>
        <mxCell id="Aejfl0fqgXJ9-_Io9ViW-28" value="" style="line;strokeWidth=1;fillColor=none;align=left;verticalAlign=middle;spacingTop=-1;spacingLeft=3;spacingRight=3;rotatable=0;labelPosition=right;points=[];portConstraint=eastwest;strokeColor=inherit;" vertex="1" parent="Aejfl0fqgXJ9-_Io9ViW-27">
          <mxGeometry y="26" width="160" height="8" as="geometry" />
        </mxCell>
        <mxCell id="Aejfl0fqgXJ9-_Io9ViW-29" value="createTable()" style="text;strokeColor=none;fillColor=none;align=left;verticalAlign=top;spacingLeft=4;spacingRight=4;overflow=hidden;rotatable=0;points=[[0,0.5],[1,0.5]];portConstraint=eastwest;whiteSpace=wrap;html=1;" vertex="1" parent="Aejfl0fqgXJ9-_Io9ViW-27">
          <mxGeometry y="34" width="160" height="26" as="geometry" />
        </mxCell>
        <mxCell id="Aejfl0fqgXJ9-_Io9ViW-30" value="deleteTable()" style="text;strokeColor=none;fillColor=none;align=left;verticalAlign=top;spacingLeft=4;spacingRight=4;overflow=hidden;rotatable=0;points=[[0,0.5],[1,0.5]];portConstraint=eastwest;whiteSpace=wrap;html=1;" vertex="1" parent="Aejfl0fqgXJ9-_Io9ViW-27">
          <mxGeometry y="60" width="160" height="26" as="geometry" />
        </mxCell>
        <mxCell id="Aejfl0fqgXJ9-_Io9ViW-31" value="DataType" style="swimlane;fontStyle=1;align=center;verticalAlign=top;childLayout=stackLayout;horizontal=1;startSize=26;horizontalStack=0;resizeParent=1;resizeParentMax=0;resizeLast=0;collapsible=1;marginBottom=0;whiteSpace=wrap;html=1;" vertex="1" parent="1">
          <mxGeometry x="550" y="520" width="160" height="86" as="geometry" />
        </mxCell>
        <mxCell id="Aejfl0fqgXJ9-_Io9ViW-32" value="" style="line;strokeWidth=1;fillColor=none;align=left;verticalAlign=middle;spacingTop=-1;spacingLeft=3;spacingRight=3;rotatable=0;labelPosition=right;points=[];portConstraint=eastwest;strokeColor=inherit;" vertex="1" parent="Aejfl0fqgXJ9-_Io9ViW-31">
          <mxGeometry y="26" width="160" height="8" as="geometry" />
        </mxCell>
        <mxCell id="Aejfl0fqgXJ9-_Io9ViW-33" value="createTable()" style="text;strokeColor=none;fillColor=none;align=left;verticalAlign=top;spacingLeft=4;spacingRight=4;overflow=hidden;rotatable=0;points=[[0,0.5],[1,0.5]];portConstraint=eastwest;whiteSpace=wrap;html=1;" vertex="1" parent="Aejfl0fqgXJ9-_Io9ViW-31">
          <mxGeometry y="34" width="160" height="26" as="geometry" />
        </mxCell>
        <mxCell id="Aejfl0fqgXJ9-_Io9ViW-34" value="deleteTable()" style="text;strokeColor=none;fillColor=none;align=left;verticalAlign=top;spacingLeft=4;spacingRight=4;overflow=hidden;rotatable=0;points=[[0,0.5],[1,0.5]];portConstraint=eastwest;whiteSpace=wrap;html=1;" vertex="1" parent="Aejfl0fqgXJ9-_Io9ViW-31">
          <mxGeometry y="60" width="160" height="26" as="geometry" />
        </mxCell>
        <mxCell id="Aejfl0fqgXJ9-_Io9ViW-35" value="" style="endArrow=open;endFill=1;endSize=12;html=1;rounded=0;" edge="1" parent="1" source="Aejfl0fqgXJ9-_Io9ViW-7" target="Aejfl0fqgXJ9-_Io9ViW-1">
          <mxGeometry width="160" relative="1" as="geometry">
            <mxPoint x="360" y="440" as="sourcePoint" />
            <mxPoint x="520" y="440" as="targetPoint" />
          </mxGeometry>
        </mxCell>
        <mxCell id="Aejfl0fqgXJ9-_Io9ViW-36" value="" style="endArrow=open;endFill=1;endSize=12;html=1;rounded=0;" edge="1" parent="1" source="Aejfl0fqgXJ9-_Io9ViW-1" target="Aejfl0fqgXJ9-_Io9ViW-19">
          <mxGeometry width="160" relative="1" as="geometry">
            <mxPoint x="424" y="246" as="sourcePoint" />
            <mxPoint x="424" y="290" as="targetPoint" />
          </mxGeometry>
        </mxCell>
        <mxCell id="Aejfl0fqgXJ9-_Io9ViW-37" value="" style="endArrow=open;endFill=1;endSize=12;html=1;rounded=0;" edge="1" parent="1" source="Aejfl0fqgXJ9-_Io9ViW-19" target="Aejfl0fqgXJ9-_Io9ViW-27">
          <mxGeometry width="160" relative="1" as="geometry">
            <mxPoint x="424" y="376" as="sourcePoint" />
            <mxPoint x="424" y="410" as="targetPoint" />
          </mxGeometry>
        </mxCell>
        <mxCell id="Aejfl0fqgXJ9-_Io9ViW-38" value="" style="endArrow=open;endFill=1;endSize=12;html=1;rounded=0;" edge="1" parent="1" source="Aejfl0fqgXJ9-_Io9ViW-19" target="Aejfl0fqgXJ9-_Io9ViW-23">
          <mxGeometry width="160" relative="1" as="geometry">
            <mxPoint x="424" y="496" as="sourcePoint" />
            <mxPoint x="424" y="530" as="targetPoint" />
          </mxGeometry>
        </mxCell>
        <mxCell id="Aejfl0fqgXJ9-_Io9ViW-39" value="" style="endArrow=open;endFill=1;endSize=12;html=1;rounded=0;" edge="1" parent="1" source="Aejfl0fqgXJ9-_Io9ViW-27" target="Aejfl0fqgXJ9-_Io9ViW-31">
          <mxGeometry width="160" relative="1" as="geometry">
            <mxPoint x="504" y="453" as="sourcePoint" />
            <mxPoint x="560" y="453" as="targetPoint" />
          </mxGeometry>
        </mxCell>
        <mxCell id="Aejfl0fqgXJ9-_Io9ViW-40" value="" style="endArrow=open;endFill=1;endSize=12;html=1;rounded=0;" edge="1" parent="1" source="Aejfl0fqgXJ9-_Io9ViW-23" target="Aejfl0fqgXJ9-_Io9ViW-31">
          <mxGeometry width="160" relative="1" as="geometry">
            <mxPoint x="504" y="573" as="sourcePoint" />
            <mxPoint x="560" y="573" as="targetPoint" />
          </mxGeometry>
        </mxCell>
        <mxCell id="Aejfl0fqgXJ9-_Io9ViW-41" value="DatabaseCode" style="swimlane;fontStyle=1;align=center;verticalAlign=top;childLayout=stackLayout;horizontal=1;startSize=26;horizontalStack=0;resizeParent=1;resizeParentMax=0;resizeLast=0;collapsible=1;marginBottom=0;whiteSpace=wrap;html=1;" vertex="1" parent="1">
          <mxGeometry x="550" y="280" width="160" height="86" as="geometry" />
        </mxCell>
        <mxCell id="Aejfl0fqgXJ9-_Io9ViW-42" value="" style="line;strokeWidth=1;fillColor=none;align=left;verticalAlign=middle;spacingTop=-1;spacingLeft=3;spacingRight=3;rotatable=0;labelPosition=right;points=[];portConstraint=eastwest;strokeColor=inherit;" vertex="1" parent="Aejfl0fqgXJ9-_Io9ViW-41">
          <mxGeometry y="26" width="160" height="8" as="geometry" />
        </mxCell>
        <mxCell id="Aejfl0fqgXJ9-_Io9ViW-43" value="import()" style="text;strokeColor=none;fillColor=none;align=left;verticalAlign=top;spacingLeft=4;spacingRight=4;overflow=hidden;rotatable=0;points=[[0,0.5],[1,0.5]];portConstraint=eastwest;whiteSpace=wrap;html=1;" vertex="1" parent="Aejfl0fqgXJ9-_Io9ViW-41">
          <mxGeometry y="34" width="160" height="26" as="geometry" />
        </mxCell>
        <mxCell id="Aejfl0fqgXJ9-_Io9ViW-44" value="export()" style="text;strokeColor=none;fillColor=none;align=left;verticalAlign=top;spacingLeft=4;spacingRight=4;overflow=hidden;rotatable=0;points=[[0,0.5],[1,0.5]];portConstraint=eastwest;whiteSpace=wrap;html=1;" vertex="1" parent="Aejfl0fqgXJ9-_Io9ViW-41">
          <mxGeometry y="60" width="160" height="26" as="geometry" />
        </mxCell>
        <mxCell id="Aejfl0fqgXJ9-_Io9ViW-45" value="" style="endArrow=open;endFill=1;endSize=12;html=1;rounded=0;" edge="1" parent="1" source="Aejfl0fqgXJ9-_Io9ViW-41" target="Aejfl0fqgXJ9-_Io9ViW-1">
          <mxGeometry width="160" relative="1" as="geometry">
            <mxPoint x="424" y="246" as="sourcePoint" />
            <mxPoint x="424" y="290" as="targetPoint" />
          </mxGeometry>
        </mxCell>
        <mxCell id="Aejfl0fqgXJ9-_Io9ViW-46" value="" style="endArrow=open;endFill=1;endSize=12;html=1;rounded=0;" edge="1" parent="1" source="Aejfl0fqgXJ9-_Io9ViW-7" target="Aejfl0fqgXJ9-_Io9ViW-41">
          <mxGeometry width="160" relative="1" as="geometry">
            <mxPoint x="560" y="333" as="sourcePoint" />
            <mxPoint x="504" y="333" as="targetPoint" />
          </mxGeometry>
        </mxCell>
      </root>
    </mxGraphModel>
  </diagram>
</mxfile>
